<svg height="44" width="14" xmlns="http://www.w3.org/2000/svg"><path fill="#fff" d="M13.073 17.683a3.61 3.61 0 0 0-1.725 3.036 3.513 3.513 0 0 0 2.138 3.222 8.394 8.394 0 0 1-1.095 2.262c-.681.981-1.394 1.962-2.478 1.962s-1.364-.63-2.613-.63c-1.22 0-1.653.651-2.644.651s-1.684-.909-2.48-2.024a9.784 9.784 0 0 1-1.662-5.278c0-3.098 2.014-4.74 3.997-4.74 1.053 0 1.931.692 2.592.692.63 0 1.612-.734 2.81-.734a3.758 3.758 0 0 1 3.16 1.58zM9.345 14.79a3.562 3.562 0 0 0 .846-2.22 1.535 1.535 0 0 0-.03-.32 3.569 3.569 0 0 0-2.345 1.208 3.463 3.463 0 0 0-.878 2.159 1.419 1.419 0 0 0 .031.289 1.19 1.19 0 0 0 .217.02 3.094 3.094 0 0 0 2.158-1.136z"/></svg>